#!OML:ASF I:\Actors\actors\Patient Classification 2\Patient 1\Session 1\actor1.ASF
:FULLY-SPECIFIED
:DEGREES
747
root -0.371512 17.1303 4.85722 6.92526 -12.7046 -10.0652
lowerback 29.04 -2.8479 -8.7102
upperback 1.30273 -7.61157 -6.78162
thorax -13.7257 -3.09462 0.246727
lowerneck -9.91174 -0.431045 -1.64539
upperneck 37.1301 -4.66022 10.7994
head 14.8669 -1.12992 4.048
rclavicle -1.11319e-014 1.27222e-014
rhumerus 13.1626 -55.1012 -11.355
rradius 135.983
rwrist -64.8655
rhand 10.4475 -13.7007
rfingers 7.12502
rthumb 35.5506 -40.1263
lclavicle -1.11319e-014 1.27222e-014
lhumerus -49.9131 -53.0378 65.6629
lradius 136.702
lwrist 56.2942
lhand 26.1505 -2.7647
lfingers 7.12502
lthumb 50.2153 18.3443
rfemur -28.6656 -5.71494 23.2536
rtibia 49.7265
rfoot -19.8981 11.2452
rtoes -14.5961
lfemur -31.8402 20.4653 -3.70491
ltibia 61.8478
lfoot -28.1941 -1.28962
ltoes -56.9619
748
root -0.372456 17.1358 4.84111 7.03982 -12.6565 -9.97514
lowerback 28.9274 -2.86404 -8.75882
upperback 1.27789 -7.6374 -6.78912
thorax -13.6958 -3.1053 0.267732
lowerneck -9.92949 -0.537548 -1.92802
upperneck 37.1069 -4.77546 10.8861
head 14.8789 -1.20769 4.11956
rclavicle 4.13472e-014 1.27222e-014
rhumerus 10.5761 -54.1761 -9.6039
rradius 135.372
rwrist -65.3233
rhand 10.7281 -13.9083
rfingers 7.12502
rthumb 35.8165 -40.2697
lclavicle 4.13472e-014 1.27222e-014
lhumerus -49.1301 -51.5805 62.6166
lradius 137.394
lwrist 56.6272
lhand 27.3628 -2.023
lfingers 7.12502
lthumb 51.3211 18.4774
rfemur -28.8344 -5.81241 23.1992
rtibia 49.6153
rfoot -19.8144 11.1806
rtoes -14.9344
lfemur -32.0633 20.3627 -3.87563
ltibia 61.7815
lfoot -28.1486 -1.15578
ltoes -57.0413
749
root -0.374225 17.1425 4.82915 7.09066 -12.7222 -9.92708
lowerback 28.8527 -2.81566 -8.83055
upperback 1.21609 -7.60085 -6.81362
thorax -13.7284 -3.08328 0.263197
lowerneck -9.86347 -0.641421 -2.12396
upperneck 37.1808 -4.90213 10.9205
head 14.9172 -1.2879 4.1559
rclavicle 3.33958e-014 3.18055e-015
rhumerus 7.87383 -52.7106 -7.693
rradius 134.663
rwrist -65.6479
rhand 11.0641 -14.4163
rfingers 7.12502
rthumb 36.1349 -40.6995
lclavicle 3.33958e-014 3.18055e-015
lhumerus -48.5665 -50.239 59.7706
lradius 137.987
lwrist 56.6069
lhand 28.3521 -1.86983
lfingers 7.12502
lthumb 52.2195 18.1045
rfemur -28.9028 -5.76408 23.164
rtibia 49.503
rfoot -19.7554 11.1364
rtoes -15.1429
lfemur -32.1322 20.3209 -3.95947
ltibia 61.7046
lfoot -28.1251 -1.0399
ltoes -57.0459
750
root -0.37585 17.1491 4.82184 7.08792 -12.9165 -9.94877
lowerback 28.7897 -2.70741 -8.88915
upperback 1.16426 -7.48654 -6.85577
thorax -13.7629 -3.02844 0.204955
lowerneck -9.78273 -0.734558 -2.31226
upperneck 37.2669 -5.03117 10.9953
head 14.9605 -1.36398 4.20877
rclavicle -1.74931e-014 -3.18055e-015
rhumerus 5.16731 -50.8929 -5.78959
rradius 133.907
rwrist -65.3786
rhand 11.515 -15.13
rfingers 7.12502
rthumb 36.5618 -41.3065
lclavicle -1.74931e-014 -3.18055e-015
lhumerus -47.9868 -48.9222 56.947
lradius 138.498
lwrist 56.5267
lhand 29.2807 -1.981
lfingers 7.12502
lthumb 53.0591 17.4739
rfemur -28.8763 -5.59745 23.1756
rtibia 49.4011
rfoot -19.6561 11.1615
rtoes -15.0193
lfemur -32.0318 20.3848 -3.93022
ltibia 61.6225
lfoot -28.1848 -0.875636
ltoes -57.1247
751
root -0.377816 17.1549 4.81361 7.1138 -13.0973 -9.95923
lowerback 28.6756 -2.61432 -8.98325
upperback 1.14782 -7.38546 -6.86465
thorax -13.7212 -2.98107 0.201279
lowerneck -9.81499 -0.808327 -2.62681
upperneck 37.3613 -5.106 11.0902
head 15.0324 -1.42783 4.30385
rclavicle -7.63333e-014 -8.90555e-014
rhumerus 2.65181 -48.9888 -4.05929
rradius 133.135
rwrist -64.4939
rhand 12.1504 -15.7662
rfingers 7.12502
rthumb 37.163 -41.7884
lclavicle -7.63333e-014 -8.90555e-014
lhumerus -47.3033 -47.3501 54.0967
lradius 138.927
lwrist 56.5071
lhand 30.3528 -2.1445
lfingers 7.12502
lthumb 54.0239 16.6774
rfemur -28.8774 -5.44201 23.1861
rtibia 49.2694
rfoot -19.5449 11.1658
rtoes -14.7753
lfemur -31.9702 20.4724 -3.9306
ltibia 61.521
lfoot -28.2427 -0.67444
ltoes -57.3224
752
root -0.381298 17.162 4.80106 7.1352 -13.1588 -9.94276
lowerback 28.6078 -2.54523 -9.10346
upperback 1.13542 -7.32342 -6.84213
thorax -13.6861 -2.94726 0.261226
lowerneck -9.7828 -0.896989 -2.89811
upperneck 37.3903 -5.14552 11.0272
head 15.0453 -1.49078 4.32274
rclavicle -3.65764e-014 -1.27222e-014
rhumerus 0.29705 -46.9901 -2.50568
rradius 132.339
rwrist -63.3257
rhand 13.349 -16.4564
rfingers 7.12502
rthumb 38.2954 -42.1747
lclavicle -3.65764e-014 -1.27222e-014
lhumerus -46.6195 -45.5502 51.3278
lradius 139.262
lwrist 56.3555
lhand 31.4574 -2.27292
lfingers 7.12502
lthumb 55.0122 15.8569
rfemur -28.8763 -5.34913 23.1955
rtibia 49.1137
rfoot -19.4816 11.1071
rtoes -14.6076
lfemur -31.9571 20.4291 -3.95786
ltibia 61.3976
lfoot -28.2139 -0.531886
ltoes -57.3983
753
root -0.384353 17.1707 4.7889 7.08944 -13.2065 -9.93605
lowerback 28.6176 -2.45622 -9.16417
upperback 1.10006 -7.23861 -6.86759
thorax -13.7313 -2.9035 0.236044
lowerneck -9.55904 -1.01672 -3.07601
upperneck 37.3828 -5.2422 10.9354
head 14.9985 -1.57543 4.29913
rclavicle -2.8625e-014 2.54444e-014
rhumerus -2.07848 -44.6982 -1.00736
rradius 131.543
rwrist -62.2118
rhand 15.214 -17.2662
rfingers 7.12502
rthumb 40.0531 -42.4762
lclavicle -2.8625e-014 2.54444e-014
lhumerus -45.9286 -43.7197 48.6105
lradius 139.521
lwrist 56.1578
lhand 32.0308 -2.16966
lfingers 7.12502
lthumb 55.5229 15.5839
rfemur -28.7739 -5.28773 23.2137
rtibia 48.9402
rfoot -19.3955 11.0872
rtoes -14.2947
lfemur -31.8466 20.3458 -3.94052
ltibia 61.2527
lfoot -28.1598 -0.459393
ltoes -57.3411
754
root -0.384736 17.1792 4.77988 7.02789 -13.2903 -9.94079
lowerback 28.6092 -2.38226 -9.12892
upperback 1.0717 -7.14849 -6.94769
thorax -13.7821 -2.8658 0.099942
lowerneck -9.41948 -1.13546 -3.25639
upperneck 37.4908 -5.3686 10.8885
head 15.0349 -1.66581 4.29919
rclavicle 6.36111e-015 -7.31528e-014
rhumerus -4.34973 -42.0991 0.306974
rradius 130.735
rwrist -61.3451
rhand 17.6494 -18.0275
rfingers 7.12502
rthumb 42.3393 -42.5029
lclavicle 6.36111e-015 -7.31528e-014
lhumerus -45.2059 -41.8314 45.8794
lradius 139.613
lwrist 56.0233
lhand 31.772 -2.23464
lfingers 7.12502
lthumb 55.2926 15.6903
rfemur -28.6364 -5.27018 23.2303
rtibia 48.7566
rfoot -19.2597 11.1061
rtoes -14.0604
lfemur -31.6965 20.3452 -3.91863
ltibia 61.0997
lfoot -28.1032 -0.352312
ltoes -57.3815
755
root -0.384034 17.1885 4.77131 6.98676 -13.3363 -9.91314
lowerback 28.5806 -2.34049 -9.1012
upperback 1.06139 -7.09485 -7.01599
thorax -13.7979 -2.84573 -0.00811092
lowerneck -9.38299 -1.22688 -3.40404
upperneck 37.5648 -5.42132 10.7493
head 15.0659 -1.72649 4.26253
rclavicle 5.24792e-014 2.8625e-014
rhumerus -6.44832 -39.257 1.37161
rradius 129.89
rwrist -60.7371
rhand 20.5143 -18.6294
rfingers 7.12502
rthumb 45.0138 -42.1235
lclavicle 5.24792e-014 2.8625e-014
lhumerus -44.4766 -39.804 43.222
lradius 139.503
lwrist 56.0621
lhand 31.384 -2.35136
lfingers 7.12502
lthumb 54.9467 15.8258
rfemur -28.5271 -5.2957 23.2086
rtibia 48.5609
rfoot -19.1165 11.1006
rtoes -13.9916
lfemur -31.5898 20.3245 -3.95865
ltibia 60.9328
lfoot -28.0545 -0.20323
ltoes -57.5175
756
root -0.383893 17.1982 4.76166 6.96983 -13.3882 -9.88705
lowerback 28.5317 -2.2928 -9.12773
upperback 1.05072 -7.04103 -7.04233
thorax -13.7902 -2.82184 -0.0444187
lowerneck -9.33683 -1.28736 -3.55254
upperneck 37.5618 -5.39717 10.5579
head 15.045 -1.75986 4.21007
rclavicle -9.38264e-014 -1.59028e-014
rhumerus -8.4311 -36.1407 2.18834
rradius 129.067
rwrist -60.311
rhand 23.3806 -19.2039
rfingers 7.12502
rthumb 47.6704 -41.5691
lclavicle -9.38264e-014 -1.59028e-014
lhumerus -43.8174 -37.6099 40.722
lradius 139.238
lwrist 56.0932
lhand 31.2366 -2.2936
lfingers 7.12502
lthumb 54.8151 15.978
rfemur -28.444 -5.23536 23.185
rtibia 48.3573
rfoot -19.0366 11.0343
rtoes -14.153
lfemur -31.4978 20.2475 -3.99558
ltibia 60.7569
lfoot -28.054 -0.111211
ltoes -57.5301
757
root -0.383672 17.2088 4.75319 6.90719 -13.4901 -9.93137
lowerback 28.5287 -2.22767 -9.14611
upperback 1.057 -6.95953 -7.02728
thorax -13.7798 -2.78479 -0.0489478
lowerneck -9.37495 -1.3396 -3.94804
upperneck 37.6498 -5.39731 10.6034
head 15.1087 -1.8086 4.30953
rclavicle -7.95139e-015 -2.54444e-014
rhumerus -10.2956 -32.7376 2.7262
rradius 128.226
rwrist -59.7955
rhand 26.2052 -19.8133
rfingers 7.12502
rthumb 50.2653 -40.8956
lclavicle -7.95139e-015 -2.54444e-014
lhumerus -43.3295 -35.2438 38.3921
lradius 138.791
lwrist 55.828
lhand 30.8847 -2.43754
lfingers 7.12502
lthumb 54.5005 16.0564
rfemur -28.28 -5.05773 23.2216
rtibia 48.1483
rfoot -19.0433 10.9111
rtoes -14.5726
lfemur -31.2953 20.1896 -3.91499
ltibia 60.574
lfoot -28.0611 -0.0829009
ltoes -57.4108
758
root -0.381824 17.2197 4.74317 6.81193 -13.5218 -9.9423
lowerback 28.5968 -2.17141 -9.10935
upperback 1.06887 -6.89032 -7.06929
thorax -13.8121 -2.75612 -0.135396
lowerneck -9.40424 -1.42629 -4.44763
upperneck 37.7487 -5.51661 10.8935
head 15.2049 -1.89561 4.51908
rclavicle -7.95139e-015 9.54166e-015
rhumerus -12.1439 -28.989 3.04429
rradius 127.302
rwrist -58.9084
rhand 29.0673 -20.3694
rfingers 7.12502
rthumb 52.8665 -39.946
lclavicle -7.95139e-015 9.54166e-015
lhumerus -42.9446 -32.9991 36.1956
lradius 138.177
lwrist 55.4903
lhand 29.8267 -2.84149
lfingers 7.12502
lthumb 53.5511 16.2956
rfemur -28.0974 -4.9517 23.2227
rtibia 47.9476
rfoot -19.0044 10.8241
rtoes -14.5832
lfemur -31.0953 20.0988 -3.87212
ltibia 60.3874
lfoot -28.0278 -0.074377
ltoes -57.2744
759
root -0.37924 17.2294 4.72956 6.76151 -13.4632 -9.89523
lowerback 28.6276 -2.14628 -9.02821
upperback 1.14545 -6.8388 -7.15005
thorax -13.7627 -2.74505 -0.283549
lowerneck -9.63999 -1.55491 -4.87529
upperneck 37.7966 -5.67871 11.1177
head 15.3286 -1.99028 4.67935
rclavicle -1.11319e-014 0
rhumerus -13.8884 -25.0013 3.15887
rradius 126.302
rwrist -57.5199
rhand 31.3754 -20.8341
rfingers 7.12502
rthumb 54.9391 -39.0168
lclavicle -1.11319e-014 0
lhumerus -42.5008 -30.7437 34.1352
lradius 137.37
lwrist 55.0947
lhand 28.3385 -3.25947
lfingers 7.12502
lthumb 52.2072 16.7223
rfemur -28.0102 -4.95133 23.1796
rtibia 47.7678
rfoot -18.9281 10.7253
rtoes -14.5697
lfemur -31.0328 19.9801 -3.93321
ltibia 60.2088
lfoot -27.9661 -0.038427
ltoes -57.2318
760
root -0.377296 17.2391 4.71265 6.78102 -13.3199 -9.81164
lowerback 28.6022 -2.13589 -8.97271
upperback 1.22846 -6.80108 -7.20583
thorax -13.6717 -2.73977 -0.389424
lowerneck -9.88717 -1.70743 -5.16189
upperneck 37.766 -5.8008 11.0814
head 15.396 -2.07589 4.69886
rclavicle -4.77083e-015 -2.8625e-014
rhumerus -15.5929 -20.7938 3.14521
rradius 125.279
rwrist -55.7533
rhand 32.6382 -21.2522
rfingers 7.12502
rthumb 56.0619 -38.5939
lclavicle -4.77083e-015 -2.8625e-014
lhumerus -42.1194 -28.4477 32.3211
lradius 136.339
lwrist 54.3254
lhand 26.7919 -3.63349
lfingers 7.12502
lthumb 50.801 17.1583
rfemur -28.0251 -4.97444 23.1126
rtibia 47.6001
rfoot -18.9462 10.5319
rtoes -14.8216
lfemur -31.1263 19.8332 -4.07636
ltibia 60.0361
lfoot -27.8868 0.0502159
ltoes -57.2832
